<?xml version="1.0" encoding="utf-8"?>
<!-- Generator: Adobe Illustrator 23.0.5, SVG Export Plug-In . SVG Version: 6.00 Build 0)  -->
<svg version="1.1" id="Capa_1" xmlns="http://www.w3.org/2000/svg" xmlns:xlink="http://www.w3.org/1999/xlink" x="0px" y="0px"
	 viewBox="0 0 100 100" style="enable-background:new 0 0 100 100;" xml:space="preserve">
<style type="text/css">
	.st0{fill:#FFFFFF;}
</style>
<g>
	<path class="st0" d="M16.29,60.67c0-4.11,0-8.19,0-12.34c22.46,0,44.9,0,67.4,0c0,4.09,0,8.17,0,12.34
		C61.26,60.67,38.81,60.67,16.29,60.67z"/>
	<path class="st0" d="M16.29,36.95c0-4.15,0-8.21,0-12.34c22.48,0,44.91,0,67.41,0c0,4.08,0,8.17,0,12.34
		C61.26,36.95,38.81,36.95,16.29,36.95z"/>
	<path class="st0" d="M16.3,70.83c22.52,0,44.95,0,67.41,0c0,4.15,0,8.24,0,12.37c-22.49,0-44.92,0-67.41,0
		C16.3,79.07,16.3,74.99,16.3,70.83z"/>
</g>
</svg>
